<svg id="carritoIco" width="17" height="14" viewBox="0 0 17 14"  xmlns="http://www.w3.org/2000/svg">
            <path d="M16.0001 8.48461L16.9831 3.73075C17.0106 3.59754 17.0045 3.46064 16.9652 3.32972C16.926 3.19881 16.8545 3.07707 16.7558 2.97312C16.6572 2.86918 16.5338 2.78556 16.3943 2.72817C16.2549 2.67079 16.1028 2.64104 15.9488 2.64103H3.22918L2.84005 0.759007C2.79611 0.545982 2.66849 0.353292 2.47947 0.214571C2.29044 0.0758493 2.05202 -9.27424e-05 1.80582 8.49996e-08H0.450502C0.331021 8.49996e-08 0.216434 0.0417377 0.131949 0.116031C0.0474635 0.190325 0 0.291088 0 0.396155C0 0.501222 0.0474635 0.601986 0.131949 0.676279C0.216434 0.750573 0.331021 0.79231 0.450502 0.79231H1.80582C1.84099 0.792287 1.87506 0.803131 1.90206 0.822948C1.92907 0.842766 1.9473 0.870296 1.95357 0.900731L3.95846 10.5974C3.98087 10.706 4.02525 10.8102 4.08949 10.905C3.78429 11.1047 3.55206 11.3785 3.42133 11.6926C3.2906 12.0068 3.26706 12.3477 3.3536 12.6734C3.44014 12.9992 3.633 13.2956 3.90848 13.5263C4.18396 13.757 4.53007 13.9119 4.90429 13.972C5.27852 14.0322 5.66456 13.9948 6.015 13.8647C6.36545 13.7345 6.66503 13.5172 6.87695 13.2394C7.08887 12.9616 7.20391 12.6354 7.20792 12.3009C7.21194 11.9664 7.10476 11.6381 6.89956 11.3564H12.6222C12.3889 11.6776 12.2839 12.0579 12.3236 12.4373C12.3633 12.8168 12.5455 13.1738 12.8415 13.4521C13.1375 13.7304 13.5304 13.9142 13.9583 13.9744C14.3862 14.0347 14.8247 13.9679 15.2047 13.7848C15.5847 13.6016 15.8845 13.3124 16.0569 12.9628C16.2294 12.6132 16.2646 12.2231 16.157 11.854C16.0494 11.4849 15.8051 11.1577 15.4627 10.9242C15.1203 10.6907 14.6992 10.564 14.2659 10.5641H4.9927C4.95752 10.5642 4.92346 10.5533 4.89645 10.5335C4.86945 10.5137 4.85122 10.4862 4.84495 10.4557L4.59433 9.24362H14.9659C15.2121 9.24371 15.4505 9.16777 15.6396 9.02905C15.8286 8.89033 15.9562 8.69764 16.0001 8.48461ZM6.30703 12.2808C6.30703 12.4636 6.24538 12.6423 6.12987 12.7944C6.01437 12.9464 5.8502 13.0648 5.65812 13.1348C5.46604 13.2048 5.25469 13.2231 5.05078 13.1874C4.84687 13.1517 4.65957 13.0637 4.51257 12.9344C4.36556 12.8052 4.26544 12.6405 4.22488 12.4611C4.18432 12.2818 4.20514 12.096 4.2847 11.9271C4.36426 11.7582 4.49899 11.6138 4.67186 11.5122C4.84472 11.4107 5.04795 11.3564 5.25586 11.3564C5.53455 11.3567 5.80173 11.4542 5.9988 11.6275C6.19587 11.8008 6.30671 12.0357 6.30703 12.2808ZM15.3171 12.2808C15.3171 12.4636 15.2554 12.6423 15.1399 12.7944C15.0244 12.9464 14.8602 13.0648 14.6682 13.1348C14.4761 13.2048 14.2647 13.2231 14.0608 13.1874C13.8569 13.1517 13.6696 13.0637 13.5226 12.9344C13.3756 12.8052 13.2755 12.6405 13.2349 12.4611C13.1944 12.2818 13.2152 12.096 13.2947 11.9271C13.3743 11.7582 13.509 11.6138 13.6819 11.5122C13.8548 11.4107 14.058 11.3564 14.2659 11.3564C14.5446 11.3567 14.8118 11.4542 15.0088 11.6275C15.2059 11.8008 15.3168 12.0357 15.3171 12.2808ZM3.39299 3.43334H15.9488C15.9708 3.43335 15.9925 3.4376 16.0125 3.4458C16.0324 3.454 16.05 3.46594 16.0641 3.48079C16.0782 3.49564 16.0884 3.51303 16.094 3.53174C16.0996 3.55044 16.1005 3.57 16.0966 3.58903L15.1137 8.34289C15.1074 8.37332 15.0892 8.40085 15.0622 8.42067C15.0352 8.44049 15.0011 8.45133 14.9659 8.45131H4.43052L3.39299 3.43334Z" fill="white"/>
            </svg>