<svg width="20" height="35" viewBox="0 0 20 35" fill="none" xmlns="http://www.w3.org/2000/svg">
<g clip-path="url(#clip0_129_501)">
<path d="M2.83815 34.9955C2.17618 34.9966 1.53464 34.7936 1.02492 34.4218C0.738043 34.2123 0.500902 33.9552 0.327082 33.6649C0.153262 33.3747 0.0461785 33.0572 0.0119656 32.7304C-0.0222473 32.4037 0.0170828 32.0743 0.127702 31.761C0.238322 31.4476 0.418055 31.1566 0.656613 30.9046L13.3492 17.5342L1.10992 4.13892C0.874582 3.88376 0.698836 3.59017 0.592785 3.27502C0.486735 2.95987 0.452471 2.62938 0.491964 2.30253C0.531456 1.97568 0.643923 1.65893 0.822905 1.37048C1.00189 1.08203 1.24385 0.827565 1.53489 0.621715C1.82803 0.394627 2.17131 0.223338 2.5432 0.118598C2.91509 0.0138574 3.30755 -0.0220721 3.69596 0.0130622C4.08437 0.0481965 4.46033 0.153637 4.80026 0.322767C5.14019 0.491896 5.43674 0.721063 5.67131 0.995885L19.3555 15.9627C19.7722 16.409 20 16.9689 20 17.5467C20 18.1245 19.7722 18.6843 19.3555 19.1307L5.18967 34.0975C4.90546 34.3993 4.54442 34.638 4.13585 34.794C3.72728 34.95 3.28269 35.0191 2.83815 34.9955Z" fill="url(#paint0_angular_129_501)"/>
</g>
<defs>
<radialGradient id="paint0_angular_129_501" cx="0" cy="0" r="1" gradientUnits="userSpaceOnUse" gradientTransform="translate(10 17.5) rotate(90) scale(17.5 10)">
<stop offset="0.0989583" stop-color="#FDE113"/>
<stop offset="0.296875" stop-color="#CD1077"/>
<stop offset="0.427083" stop-color="#C40E71"/>
<stop offset="0.536458" stop-color="#38B5D1" stop-opacity="0.660131"/>
<stop offset="0.739583" stop-color="#38B5D1" stop-opacity="0.861369"/>
<stop offset="0.885417" stop-color="#FDE113"/>
</radialGradient>
<clipPath id="clip0_129_501">
<rect width="20" height="35" fill="white"/>
</clipPath>
</defs>
</svg>
